<?xml version="1.0" encoding="UTF-8"?>
<svg id="Layer_2" data-name="Layer 2" xmlns="http://www.w3.org/2000/svg" viewBox="0 0 267.64 102">
  <defs>
    <style>
      .cls-1 {
        letter-spacing: -.07em;
      }

      .cls-2 {
        fill: #0b132b;
        font-family: Impact, Impact;
        font-size: 30px;
      }

      .cls-3 {
        fill: #fff;
        opacity: .68;
        stroke: #ffad05;
        stroke-miterlimit: 10;
        stroke-width: 2px;
      }

      .cls-4 {
        fill: red;
        opacity: .87;
      }

      .cls-5 {
        fill: #ffad05;
        opacity: .66;
      }
    </style>
  </defs>
  <g id="Layer_1-2" data-name="Layer 1">
    <g>
      <g>
        <path class="cls-3" d="m221.89,11.09c-.26.71-.49,1.24-.65,1.78-1.72,5.85-3.43,11.71-5.15,17.57-3.29,11.2-6.58,22.41-9.87,33.61-3.37,11.49-6.74,22.99-10.11,34.48-.09.32-.17.64-.28.95-.31.87-.8,1.52-1.81,1.52-.97,0-1.81-.57-2.08-1.62-.34-1.34-.54-2.71-.77-4.08-.82-4.88-1.62-9.77-2.43-14.66-.88-5.31-1.77-10.62-2.64-15.93-.48-2.93-.94-5.87-1.42-8.8-.03-.17-.16-.33-.32-.65-.26.4-.47.68-.63.98-3.3,6.24-6.59,12.48-9.88,18.72-.28.52-.54,1.06-.88,1.55-.53.77-1.24,1.31-2.22,1.1-1.04-.21-1.61-.95-1.79-1.99-.22-1.33-.4-2.68-.59-4.02-.64-4.51-1.28-9.03-1.9-13.54-.61-4.38-1.2-8.77-1.81-13.15-.14-1.02-.32-2.04-.49-3.06-.11,0-.21-.02-.32-.02-.16.3-.33.6-.47.91-2.54,5.87-5.07,11.75-7.61,17.62-.2.45-.4.91-.63,1.34-.44.83-1.13,1.24-2.06,1.24-10.91,0-21.83,0-32.74,0-1.77,0-2.76-.96-2.7-2.53.04-1.28.74-2.04,2-2.09,1.17-.05,2.34-.02,3.51-.02,9.03,0,18.06-.01,27.09.02,1.14,0,1.79-.33,2.29-1.48,3.47-8.1,7.02-16.16,10.54-24.23.37-.86.84-1.58,1.83-1.73,1.34-.21,2.28.55,2.53,2.12.3,1.82.54,3.66.79,5.49.49,3.53.98,7.07,1.47,10.6.55,3.99,1.1,7.98,1.66,11.98.31,2.18.64,4.37.99,6.8.3-.4.48-.57.59-.77,3.4-6.44,6.79-12.89,10.19-19.33.15-.29.31-.58.47-.87.45-.79,1.04-1.39,2.02-1.27,1.12.14,1.83.84,2.05,2.08.37,2.11.68,4.24,1.04,6.35,1.34,7.98,2.69,15.95,4.04,23.93.53,3.12,1.07,6.25,1.61,9.37.03.19.09.37.21.83.25-.42.42-.63.49-.86,2.93-10.04,5.84-20.08,8.78-30.12,4.08-13.97,8.19-27.93,12.28-41.89,1.04-3.55,2.07-7.1,3.12-10.64.47-1.58,1.14-2.24,2.21-2.28,1.12-.04,1.73.63,2.17,1.54,1.63,3.43,3.23,6.86,4.85,10.29,2.59,5.49,5.18,10.97,7.77,16.46.43.9.67,1.81.05,2.72-.91,1.34-2.77,1.36-3.57-.08-1.03-1.84-1.88-3.77-2.78-5.68-2.49-5.28-4.96-10.56-7.45-15.84-.09-.19-.27-.34-.58-.7Z"/>
        <path class="cls-4" d="m244.8,47.94c1.43-1.16,2.76-2.28,4.13-3.35,4.32-3.37,9.46-.79,11.42,2.41,2.72,4.45,2.67,9.89-1.14,13.92-3.76,3.99-7.64,7.87-11.46,11.81-.91.94-1.81,1.9-3.01,3.17-.64-.8-1.12-1.51-1.71-2.11-2.78-2.84-5.6-5.64-8.38-8.48-1.6-1.65-3.22-3.3-4.7-5.05-4.2-4.98-2.91-13.67,3.35-16.47,2.56-1.14,5.03-1.15,7.33.57,1.18.88,2.25,1.91,3.37,2.87.29.25.58.5.8.7Z"/>
      </g>
      <path class="cls-5" d="m30.55,51.06c0,2.06,0,4.12,0,6.19,0,.28,0,.53.66.46,7.4,0,14.81,0,22.21,0,8.21,0,16.42,0,24.63,0,.27,0,.54,0,.81,0,.92-.03,1.85.11,2.76-.07.26-.16.15-.37.15-.55.01-2.26.01-4.52.02-6.79.18-.21.28-.44.29-.68.61-1.44,3.02-2.63,5.67-2.51.32.01.64,0,.96,0,.38.07.75.14,1.13.21,0,0,0,0,0,0,.07.08.19.09.32.09.05,0,.11,0,.16.01.38.16.76.32,1.13.48.69.47.77.47,1.46.05.5-.3,1.09-.52,1.77-.64.16-.06.33-.11.49-.17.81,0,1.61-.02,2.42-.03.52.04.98.17,1.45.3.22.06.43.13.65.19.27.1.54.19.81.29.87.56,1.52,1.19,1.86,1.93.14.3.24.58.24.89-.02.99,0,1.99-.02,2.98,0,.34.19.43.73.31.6-.13,1.2-.28,1.87-.23.52-.16,1.08-.06,1.61-.1.68,0,1.15.32,1.78.39.32.13.65.26.97.38.64.44,1.27.88,1.69,1.42.31.39.08.81.4,1.18,0,2.75,0,5.49,0,8.24,0,.14-.03.29-.07.43-.56,2.03-4.59,3.67-8.35,2.46-.55-.18-.63-.04-.63.26.01,1.08.02,2.15,0,3.23-.02,2.28-4.2,4.23-7.91,3.25-.77-.2-1.44-.48-2.1-.79-.12-.11-.3-.1-.49-.1-.2,0-.31.07-.34.19-.3.11-.63.2-.82.39-.69.1-1.32.27-1.92.49-.74.1-1.49.12-2.25.09-1.18-.26-2.33-.54-3.24-1.09-.84-.5-1.21-1.15-1.6-1.79,0-.1-.01-.19-.02-.29,0-.11.04-.22-.13-.3,0-2.46-.03-4.91,0-7.37,0-.43-.19-.54-.9-.54-16.49.01-32.99.01-49.48,0-.66,0-.87.1-.86.51.03,2.25,0,4.5.01,6.74,0,1.36-.55,2.57-2.51,3.41-.06.02-.07.08-.1.13-.23.04-.47.07-.68.13-1.85.61-3.68.6-5.49-.05-.5-.18-.97-.4-1.43-.62-.24-.12-.49-.19-.7-.02-.84.66-2.1.88-3.33,1.14-.54,0-1.07,0-1.61,0-.09-.03-.18-.07-.28-.09-3.07-.42-4.69-1.83-4.73-3.62-.02-.9,0-1.8,0-2.7,0-.68,0-.67-1.05-.47-1.46.28-2.92.38-4.39,0-2.51-.65-3.53-1.86-3.59-3.41-.04-1.01-.02-2.02,0-3.03,0-.28.16-.57.12-.85-.23-1.34-.13-2.68-.04-4.03,0-.12,0-.21-.09-.31.08-.86,1-1.47,1.8-2.11.23-.09.51-.13.64-.29.72-.31,1.59-.41,2.42-.58.54,0,1.08,0,1.61-.01.16,0,.32,0,.48.01.47.11.98.18,1.4.33.62.23.72.1.72-.26-.02-1.18,0-2.37,0-3.55.03-.38.32-.71.48-1.06.27-.26.54-.51.8-.77.27-.19.55-.38.82-.57.19-.06.37-.11.56-.18,1.22-.42,2.48-.67,3.95-.53,1.22.12,2.21.44,3.08.93.27.15.56.38.95.18.42-.21.89-.4,1.16-.7.13,0,.25-.02.32-.1.25-.02.48-.07.65-.19.59-.07,1.18-.13,1.77-.2,1.31-.08,2.43.25,3.55.59,1.59.69,2.37,1.67,2.73,2.79,0,.22.01.45.02.67Zm72.06,13.21c.02.42-.11.84.07,1.24.39.87,1.56,1.47,3.04,1.55,1.47.08,2.56-.36,3.32-1.35.14-.25.18-.5.17-.75-.01-2.67.03-5.35-.17-8.02-.05-.12-.1-.25-.15-.37-.32-.74-1.76-1.42-3.09-1.46-1.29-.04-2.61.53-3.01,1.31-.18.35-.26.72-.19,1.09,0,2.25,0,4.5,0,6.75Zm-79.97-15.32c-1.06.42-1.22,1.05-1.13,1.73,0,7.07,0,14.13,0,21.2,0,.28.14.54.34.78.14.17.36.3.63.4.28.24.67.39,1.14.47.59.16,1.21.14,1.81.04,1.64-.27,2.55-1.11,2.54-2.35,0-3.29-.03-6.58-.13-9.86-.1-3.56-.06-7.13,0-10.69.02-1.63-2.99-2.58-4.87-1.81-.11.03-.21.07-.32.1Zm9.52,10.23c-.1-.11-.2-.11-.3,0-.18.02-.39.09-.55.06-.86-.17-.77.16-.76.48.01.67.03,1.35,0,2.02-.02.38.07.57.82.49.49-.05,1.01.02,1.52.02,10.63,0,21.26,0,31.88,0,5.38,0,10.76,0,16.14,0,.67,0,.9-.11.86-.51-.06-.67-.06-1.34-.1-2.01-.02-.39-.14-.49-.72-.48-.27,0-.54,0-.81,0-1.37.03-2.73-.08-4.1-.08-14.22-.01-28.45,0-42.67,0-.3,0-.59,0-.89.01h-.33Zm58.65,12.81c.25-.15.15-.33.15-.5,0-6.62,0-13.24,0-19.86,0-.19.03-.39-.17-.56.12-.78-.06-1.48-1.18-2.03-1.27-.63-3.79-.62-4.67.42-.48.55-.59,1.14-.58,1.72.04,2.21-.07,4.42.09,6.64.13,1.74.03,3.49-.06,5.24-.15,2.84-.06,5.68-.03,8.53,0,.8.68,1.44,1.86,1.83,1.76.59,4.16.05,4.59-1.42ZM16.17,48.65c-1.92-.38-3.86.53-3.87,1.84-.02,2.31,0,4.62,0,6.93,0,2.51,0,5.01,0,7.52,0,2.27,0,4.55-.01,6.82,0,.18,0,.35.17.51,0,.08.03.15.15.19.66,1.22,3.8,1.67,5.34.39.58-.31.79-.72.79-1.16,0-7.01,0-14.02,0-21.03,0-1.01-.92-1.7-2.57-2.01Zm83.84,7.33c0-1.8,0-3.6-.01-5.4-.06-1.57-3.03-2.51-4.84-1.74-.97.23-1.61.83-1.61,1.5,0,7.11,0,14.21-.01,21.32,0,.46.19.85.66,1.2.23.15.31.43.81.31.04,0,.08,0,.12,0-.02.22.22.31.52.37,2.78.5,4.36-.67,4.36-1.8,0-4.96,0-9.92,0-14.87,0-.29,0-.58,0-.87ZM3.09,61.2c0,1.28-.03,2.57,0,3.85.04,1.36,2.47,2.37,4.54,1.9,1.25-.28,2.07-1.03,2.06-1.94-.02-1.18-.11-2.37-.13-3.55-.02-1.36-.01-2.73,0-4.09,0-.29-.06-.57-.18-.85-.25-.59-1.38-1.24-2.27-1.31-1.76-.14-2.82.14-3.5.89-.41.45-.51.94-.52,1.44-.02,1.22,0,2.44,0,3.66Z"/>
      <text class="cls-2" transform="translate(0 39.7)"><tspan x="0" y="0">STRENGTH AND HEA</tspan><tspan class="cls-1" x="224.22" y="0">L</tspan><tspan x="233.48" y="0">TH</tspan></text>
    </g>
  </g>
</svg>