<?xml version="1.0" encoding="UTF-8" standalone="no"?>
<svg
   id="Layer_2"
   data-name="Layer 2"
   viewBox="0 0 343.12 84.43"
   version="1.1"
   sodipodi:docname="SH-color2.svg"
   inkscape:version="1.2.1 (9c6d41e410, 2022-07-14)"
   xmlns:inkscape="http://www.inkscape.org/namespaces/inkscape"
   xmlns:sodipodi="http://sodipodi.sourceforge.net/DTD/sodipodi-0.dtd"
   xmlns="http://www.w3.org/2000/svg"
   xmlns:svg="http://www.w3.org/2000/svg">
  <sodipodi:namedview
     id="namedview40"
     pagecolor="#ffffff"
     bordercolor="#000000"
     borderopacity="0.25"
     inkscape:showpageshadow="2"
     inkscape:pageopacity="0.0"
     inkscape:pagecheckerboard="0"
     inkscape:deskcolor="#d1d1d1"
     showgrid="false"
     inkscape:zoom="2.795215"
     inkscape:cx="171.72203"
     inkscape:cy="42.215"
     inkscape:window-width="1680"
     inkscape:window-height="987"
     inkscape:window-x="-8"
     inkscape:window-y="-8"
     inkscape:window-maximized="1"
     inkscape:current-layer="Layer_2" />
  <defs
     id="defs4">
    <style
       id="style2">
      .cls-1 {
        letter-spacing: -.07em;
      }

      .cls-1, .cls-2 {
        fill: #07a04a;
      }

      .cls-3 {
        fill: #ea362a;
      }

      .cls-4 {
        fill: #df2835;
      }

      .cls-5 {
        fill: #0e162c;
      }

      .cls-6 {
        font-family: Impact, Impact;
        font-size: 33px;
      }
    </style>
  </defs>
  <g
     id="Layer_1-2"
     data-name="Layer 1">
    <g
       id="g24">
      <path
         class="cls-3"
         d="m0,44.51C21.42-41.04,65.07,24.33,27.92,17.34c-7.96,1.95-.18,14.34-1.52,20.44,4.15,2.71,13.31-4.41,19.21,1.66,11.68-13.95,34.4-1.02,25.45-1.8-9.93-5.54-28.23-2.84-19.64,10.08-10.95-11.21-17.86-12.18-29,.15-5.34,1.42,4.33-5.66,1.78-10.03-10.79-43.34,25.07-5.84,12.99-33.15C17.11-10.42-2.96,44.15,5.34,56.44c13.95,15.44,33.27,9.47,50.54,12.48,6.07,3.56,12.73,3.44,19.48,1.53,0,.71,0,1.42,0,2.13-8.42,2.92-16.13,1.54-23.64-3.32C33.73,72.52-.52,68.5,0,45.92v-1.41Z"
         id="path6" />
      <path
         class="cls-3"
         d="m16.4,53.06c5.27,4.13,12.24,6.79,17.86,9.32-4.6,2.51-17.8-4.51-17.86-9.32Z"
         id="path8" />
      <path
         class="cls-3"
         d="m75.36,62.95c-.05,4.34-13.71.72-13.37-3.5,3.68.45,8.29,4.93,13.37,3.5Z"
         id="path10" />
      <path
         class="cls-3"
         d="m46.54,13.23c3.14,3.74,5.38,9.2,7.06,13.23-3.73-2.16-4.55-9.27-7.06-13.23Z"
         id="path12" />
      <path
         class="cls-3"
         d="m38.84,63.35c-9.73-.57,9.75-4.9,4.34-.49-1.47,0-2.83.9-4.34.49Z"
         id="path14" />
      <path
         class="cls-3"
         d="m58.25,23.39c-.43,5.87-2.74-3.36-1.81-4.64,1.32.41,1.74,3.21,1.81,4.64Z"
         id="path16" />
      <path
         class="cls-3"
         d="m67.41,23.07c-.5-1.62.35-4.56,1.43-5.18,1.16,1.83-.73,3.6-1.43,5.18Z"
         id="path18" />
      <path
         class="cls-3"
         d="m69.3,26.6c.93-1.6,1.29-3.22,3.13-3.63-1.18.99-.52,3.35-3.13,3.63Z"
         id="path20" />
      <path
         class="cls-3"
         d="m63.16,17.85c.49,1.09.42,2.07-.6,3-.95-1.34.24-2.08.6-3Z"
         id="path22" />
    </g>
    <g
       aria-label="STRENGTH&amp;HEALTH"
       transform="translate(80.48 69.64)"
       id="text36"
       class="cls-6"
       style="font-size:33px;font-family:Impact, Impact">
      <path
         d="M 15.726563,-18.191895 H 9.4262695 v -1.933593 q 0,-1.353516 -0.2416992,-1.724121 -0.2416992,-0.370606 -0.805664,-0.370606 -0.6123047,0 -0.9345704,0.499512 -0.3061523,0.499512 -0.3061523,1.514648 0,1.305176 0.3544922,1.965821 0.3383789,0.660644 1.9174805,1.595214 4.5278317,2.690918 5.7041017,4.41504 1.176269,1.724121 1.176269,5.5590816 0,2.7875976 -0.660644,4.1088867 -0.644531,1.321289 -2.513672,2.22363279 -1.869141,0.88623047 -4.350586,0.88623047 -2.7231445,0 -4.6567383,-1.03125 Q 2.1914063,-1.5146484 1.5952148,-3.1098633 0.99902344,-4.7050781 0.99902344,-7.6376953 V -9.3457031 H 7.2993164 v 3.1743164 q 0,1.4663086 0.2578125,1.8852539 0.2739258,0.4189453 0.9506836,0.4189453 0.6767578,0 0.9990234,-0.5317383 0.3383789,-0.5317383 0.3383789,-1.5791015 0,-2.3041993 -0.6284179,-3.0131836 -0.6445313,-0.7089844 -3.1743164,-2.3686521 -2.5297852,-1.675782 -3.3515625,-2.433106 -0.8217774,-0.757324 -1.3696289,-2.094726 -0.53173832,-1.337403 -0.53173832,-3.416016 0,-2.99707 0.75732422,-4.382812 0.7734375,-1.385743 2.4814453,-2.15918 1.7080078,-0.789551 4.125,-0.789551 2.6425777,0 4.4956057,0.854004 1.86914,0.854004 2.465332,2.15918 0.612305,1.289062 0.612305,4.398925 z"
         style="fill:#df2835"
         id="path221" />
      <path
         d="m 32.081543,-26.087402 v 5.220703 h -4.02832 V 0 h -6.783692 v -20.866699 h -4.012207 v -5.220703 z"
         style="fill:#df2835"
         id="path223" />
      <path
         d="m 33.628418,-26.087402 h 4.801758 q 4.801758,0 6.493652,0.370605 1.708008,0.370606 2.771484,1.901367 1.07959,1.514649 1.07959,4.850098 0,3.04541 -0.757324,4.092773 -0.757324,1.047364 -2.980957,1.256836 2.01416,0.499512 2.707031,1.337403 0.692871,0.83789 0.854004,1.546875 0.177246,0.692871 0.177246,3.8510739 V 0 h -6.300293 v -8.6689453 q 0,-2.0947267 -0.338379,-2.5942387 -0.322265,-0.499511 -1.724121,-0.499511 V 0 h -6.783691 z m 6.783691,4.463379 v 5.800781 q 1.144043,0 1.595215,-0.306153 0.467285,-0.322265 0.467285,-2.046386 v -1.434082 q 0,-1.240723 -0.451172,-1.627442 -0.435058,-0.386718 -1.611328,-0.386718 z"
         style="fill:#df2835"
         id="path225" />
      <path
         d="m 51.401367,-26.087402 h 11.311524 v 5.220703 h -4.527832 v 4.946777 h 4.237793 v 4.962891 h -4.237793 v 5.7363279 h 4.979003 V 0 H 51.401367 Z"
         style="fill:#df2835"
         id="path227" />
      <path
         d="M 80.260254,-26.087402 V 0 H 74.314453 L 70.785645,-11.859375 V 0 H 65.11377 v -26.087402 h 5.671875 l 3.802734,11.746582 v -11.746582 z"
         style="fill:#df2835"
         id="path229" />
      <path
         d="m 98.548828,-16.483887 h -6.783691 v -2.368652 q 0,-2.239746 -0.19336,-2.803711 -0.193359,-0.563965 -0.918457,-0.563965 -0.628418,0 -0.854004,0.483399 -0.225586,0.483398 -0.225586,2.481445 v 12.5200194 q 0,1.7563477 0.225586,2.3203125 0.225586,0.5478516 0.902344,0.5478516 0.741211,0 0.999024,-0.628418 0.273925,-0.6284179 0.273925,-2.4492187 V -10.038574 H 90.60498 v -3.963867 h 7.943848 V 0 h -4.270019 l -0.628418,-1.8691406 q -0.692871,1.20849607 -1.756348,1.82080076 -1.047363,0.5961914 -2.481445,0.5961914 -1.708008,0 -3.206543,-0.82177734 -1.482422,-0.83789062 -2.25586,-2.06250002 -0.773437,-1.2246094 -0.966797,-2.5620117 -0.193359,-1.3535156 -0.193359,-4.0444336 v -7.7504879 q 0,-3.738282 0.402832,-5.430176 0.402832,-1.691895 2.304199,-3.09375 1.917481,-1.417969 4.946778,-1.417969 2.980957,0 4.946777,1.224609 1.96582,1.22461 2.562012,2.916504 0.596191,1.675782 0.596191,4.882325 z"
         style="fill:#df2835"
         id="path231" />
      <path
         d="m 114.83936,-26.087402 v 5.220703 h -4.02832 V 0 h -6.7837 v -20.866699 h -4.0122 v -5.220703 z"
         style="fill:#df2835"
         id="path233" />
      <path
         d="M 131.98389,-26.087402 V 0 h -6.78369 v -10.957031 h -2.03028 V 0 h -6.78369 v -26.087402 h 6.78369 v 9.32959 h 2.03028 v -9.32959 z"
         style="fill:#df2835"
         id="path235" />
      <path
         d="m 157.7325,-9.909668 v 4.3989258 L 155.89558,-4.3505859 158.18367,0 h -6.01025 l -0.78955,-1.4501953 q -3.0293,1.99804686 -5.73633,1.99804686 -2.83594,0 -4.3667,-1.88525386 -1.53076,-1.885254 -1.53076,-4.5439454 0,-2.1269531 0.90234,-3.3354492 0.90234,-1.2084961 2.70703,-1.9658201 -2.57812,-1.853028 -2.57812,-5.011231 0,-2.723144 1.83691,-4.382812 1.83691,-1.659668 5.05957,-1.659668 2.90039,0 4.56006,1.627441 1.67578,1.627442 1.67578,4.141114 0,2.642578 -2.03027,4.688964 l 2.3042,4.157227 z m -10.03858,-4.576172 q 1.09571,-1.434082 1.09571,-2.739258 0,-0.563964 -0.32227,-1.03125 -0.32226,-0.467285 -0.90234,-0.467285 -0.53174,0 -0.80567,0.354492 -0.27392,0.354493 -0.27392,1.07959 0,1.514649 1.20849,2.803711 z m 1.46631,10.0869142 -2.11084,-3.5126953 q -1.20849,1.0957031 -1.20849,2.3686524 0,0.918457 0.3706,1.3857421 0.38672,0.4511719 1.12793,0.4511719 0.78955,0 1.8208,-0.6928711 z"
         style="fill:#0e162c"
         id="path237" />
      <path
         d="M 180.95117,-26.087402 V 0 h -6.78369 v -10.957031 h -2.03027 V 0 h -6.78369 v -26.087402 h 6.78369 v 9.32959 h 2.03027 v -9.32959 z"
         style="fill:#07a04a"
         id="path239" />
      <path
         d="m 183.67432,-26.087402 h 11.31152 v 5.220703 h -4.52783 v 4.946777 h 4.23779 v 4.962891 h -4.23779 v 5.7363279 h 4.979 V 0 h -11.76269 z"
         style="fill:#07a04a"
         id="path241" />
      <path
         d="M 209.10107,-26.087402 212.98437,0 h -6.94482 l -0.33838,-4.6889648 h -2.4331 L 202.86523,0 h -7.02539 l 3.44825,-26.087402 z m -3.59326,16.7739254 q -0.51562,-4.4311524 -1.03125,-10.9409184 -1.03125,7.476563 -1.28906,10.9409184 z"
         style="fill:#07a04a"
         id="path243" />
      <path
         d="m 220.9272,-26.087402 v 20.8666989 h 4.125 V 0 h -10.90869 v -26.087402 z"
         style="letter-spacing:-0.07em;fill:#07a04a"
         id="path245" />
      <path
         d="m 237.99757,-26.087402 v 5.220703 h -4.02832 V 0 h -6.78369 v -20.866699 h -4.0122 v -5.220703 z"
         style="fill:#07a04a"
         id="path247" />
      <path
         d="M 255.14211,-26.087402 V 0 h -6.7837 v -10.957031 h -2.03027 V 0 h -6.78369 v -26.087402 h 6.78369 v 9.32959 h 2.03027 v -9.32959 z"
         style="fill:#07a04a"
         id="path249" />
    </g>
  </g>
</svg>
