<?xml version="1.0" encoding="UTF-8"?>
<svg id="Layer_2" data-name="Layer 2" xmlns="http://www.w3.org/2000/svg" viewBox="0 0 343.12 84.43">
  <defs>
    <style>
      .cls-1 {
        letter-spacing: -.07em;
      }

      .cls-1, .cls-2 {
        fill: #07a04a;
      }

      .cls-3 {
        fill: #ea362a;
      }

      .cls-4 {
        fill: #df2835;
      }

      .cls-5 {
        fill: #0e162c;
      }

      .cls-6 {
        font-family: Impact, Impact;
        font-size: 33px;
      }
    </style>
  </defs>
  <g id="Layer_1-2" data-name="Layer 1">
    <g>
      <path class="cls-3" d="m0,44.51C21.42-41.04,65.07,24.33,27.92,17.34c-7.96,1.95-.18,14.34-1.52,20.44,4.15,2.71,13.31-4.41,19.21,1.66,11.68-13.95,34.4-1.02,25.45-1.8-9.93-5.54-28.23-2.84-19.64,10.08-10.95-11.21-17.86-12.18-29,.15-5.34,1.42,4.33-5.66,1.78-10.03-10.79-43.34,25.07-5.84,12.99-33.15C17.11-10.42-2.96,44.15,5.34,56.44c13.95,15.44,33.27,9.47,50.54,12.48,6.07,3.56,12.73,3.44,19.48,1.53,0,.71,0,1.42,0,2.13-8.42,2.92-16.13,1.54-23.64-3.32C33.73,72.52-.52,68.5,0,45.92v-1.41Z"/>
      <path class="cls-3" d="m16.4,53.06c5.27,4.13,12.24,6.79,17.86,9.32-4.6,2.51-17.8-4.51-17.86-9.32Z"/>
      <path class="cls-3" d="m75.36,62.95c-.05,4.34-13.71.72-13.37-3.5,3.68.45,8.29,4.93,13.37,3.5Z"/>
      <path class="cls-3" d="m46.54,13.23c3.14,3.74,5.38,9.2,7.06,13.23-3.73-2.16-4.55-9.27-7.06-13.23Z"/>
      <path class="cls-3" d="m38.84,63.35c-9.73-.57,9.75-4.9,4.34-.49-1.47,0-2.83.9-4.34.49Z"/>
      <path class="cls-3" d="m58.25,23.39c-.43,5.87-2.74-3.36-1.81-4.64,1.32.41,1.74,3.21,1.81,4.64Z"/>
      <path class="cls-3" d="m67.41,23.07c-.5-1.62.35-4.56,1.43-5.18,1.16,1.83-.73,3.6-1.43,5.18Z"/>
      <path class="cls-3" d="m69.3,26.6c.93-1.6,1.29-3.22,3.13-3.63-1.18.99-.52,3.35-3.13,3.63Z"/>
      <path class="cls-3" d="m63.16,17.85c.49,1.09.42,2.07-.6,3-.95-1.34.24-2.08.6-3Z"/>
    </g>
    <text class="cls-6" transform="translate(80.48 69.64)"><tspan class="cls-4" x="0" y="0">STRENGTH </tspan><tspan class="cls-5" x="139.17" y="0">&amp; </tspan><tspan class="cls-2" x="164" y="0">HEA</tspan><tspan class="cls-1" x="212.79" y="0">L</tspan><tspan class="cls-2" x="222.98" y="0">TH</tspan></text>
  </g>
</svg>