<?xml version="1.0" encoding="UTF-8"?>
<svg id="Layer_2" data-name="Layer 2" xmlns="http://www.w3.org/2000/svg" viewBox="0 0 335.63 74.1">
  <defs>
    <style>
      .cls-1 {
        fill: #ea362a;
      }

      .cls-2 {
        fill: #fff;
      }

      .cls-3 {
        fill: #df2835;
      }

      .cls-4 {
        fill: #07a04a;
      }

      .cls-5 {
        isolation: isolate;
      }
    </style>
  </defs>
  <g id="Layer_2-2" data-name="Layer 2">
    <g id="Layer_1-2" data-name="Layer 1-2">
      <g>
        <path class="cls-1" d="m0,44.51C21.43-41.04,65.08,24.33,27.93,17.34c-7.96,1.95-.18,14.34-1.52,20.44,4.15,2.71,13.31-4.41,19.21,1.66,11.68-13.95,34.4-1.02,25.45-1.8-9.93-5.54-28.23-2.84-19.64,10.08-10.95-11.21-17.86-12.18-29,.15-5.34,1.42,4.33-5.66,1.78-10.03-10.79-43.34,25.07-5.84,12.99-33.15C17.12-10.42-2.95,44.15,5.35,56.44c13.95,15.44,33.27,9.47,50.54,12.48,6.07,3.56,12.73,3.44,19.48,1.53v2.13c-8.42,2.92-16.13,1.54-23.64-3.32C33.74,72.52-.51,68.5,0,45.92v-1.41Z"/>
        <path class="cls-1" d="m16.41,53.06c5.27,4.13,12.24,6.79,17.86,9.32-4.6,2.51-17.8-4.51-17.86-9.32Z"/>
        <path class="cls-1" d="m75.37,62.95c-.05,4.34-13.71.72-13.37-3.5,3.68.45,8.29,4.93,13.37,3.5Z"/>
        <path class="cls-1" d="m46.55,13.23c3.14,3.74,5.38,9.2,7.06,13.23-3.73-2.16-4.55-9.27-7.06-13.23Z"/>
        <path class="cls-1" d="m38.85,63.35c-9.73-.57,9.75-4.9,4.34-.49-1.47,0-2.83.9-4.34.49Z"/>
        <path class="cls-1" d="m58.26,23.39c-.43,5.87-2.74-3.36-1.81-4.64,1.32.41,1.74,3.21,1.81,4.64Z"/>
        <path class="cls-1" d="m67.42,23.07c-.5-1.62.35-4.56,1.43-5.18,1.16,1.83-.73,3.6-1.43,5.18Z"/>
        <path class="cls-1" d="m69.31,26.6c.93-1.6,1.29-3.22,3.13-3.63-1.18.99-.52,3.35-3.13,3.63Z"/>
        <path class="cls-1" d="m63.17,17.85c.49,1.09.42,2.07-.6,3-.95-1.34.24-2.08.6-3Z"/>
      </g>
      <g class="cls-5">
        <g class="cls-5">
          <path class="cls-3" d="m96.21,51.45h-6.3v-1.93c0-.9-.08-1.48-.24-1.72s-.43-.37-.81-.37c-.41,0-.72.17-.93.5-.21.33-.31.84-.31,1.52,0,.87.12,1.53.35,1.97.23.44.86.97,1.92,1.59,3.02,1.79,4.92,3.26,5.71,4.41.78,1.15,1.18,3,1.18,5.56,0,1.86-.22,3.23-.65,4.11-.43.88-1.28,1.62-2.52,2.22-1.25.6-2.7.89-4.35.89-1.82,0-3.37-.34-4.65-1.03-1.28-.69-2.12-1.56-2.52-2.63-.4-1.06-.6-2.57-.6-4.53v-1.71h6.3v3.17c0,.98.09,1.61.27,1.89.18.28.49.42.94.42s.79-.18,1.01-.53c.22-.36.33-.88.33-1.58,0-1.54-.21-2.54-.63-3.01-.43-.47-1.49-1.26-3.17-2.37-1.69-1.12-2.8-1.93-3.35-2.43s-1-1.2-1.36-2.09-.54-2.03-.54-3.42c0-2,.25-3.46.77-4.38s1.33-1.65,2.47-2.17c1.14-.52,2.51-.78,4.12-.78,1.76,0,3.26.28,4.5.85,1.24.57,2.06,1.29,2.46,2.15.4.86.6,2.33.6,4.41v1.03Z"/>
          <path class="cls-3" d="m112.57,43.55v5.22h-4.03v20.87h-6.78v-20.87h-4.01v-5.22h14.82Z"/>
          <path class="cls-3" d="m114.11,43.55h4.8c3.2,0,5.37.12,6.5.37,1.13.25,2.06.88,2.77,1.89.71,1.01,1.07,2.63,1.07,4.86,0,2.03-.25,3.39-.76,4.09-.5.7-1.5,1.12-2.98,1.26,1.34.33,2.25.78,2.71,1.34s.75,1.07.86,1.54c.11.47.17,1.75.17,3.86v6.88h-6.3v-8.67c0-1.4-.11-2.26-.33-2.59-.22-.33-.8-.5-1.73-.5v11.76h-6.78v-26.09Zm6.78,4.46v5.8c.76,0,1.3-.1,1.6-.31.31-.21.46-.89.46-2.04v-1.43c0-.83-.15-1.37-.44-1.63-.3-.26-.84-.39-1.62-.39Z"/>
          <path class="cls-3" d="m131.89,43.55h11.31v5.22h-4.53v4.95h4.24v4.96h-4.24v5.74h4.98v5.22h-11.76v-26.09Z"/>
          <path class="cls-3" d="m160.75,43.55v26.09h-5.95l-3.53-11.86v11.86h-5.67v-26.09h5.67l3.8,11.75v-11.75h5.67Z"/>
          <path class="cls-3" d="m179.03,53.16h-6.78v-2.37c0-1.49-.06-2.43-.19-2.8s-.44-.56-.92-.56c-.42,0-.7.16-.85.48s-.23,1.15-.23,2.48v12.52c0,1.17.08,1.94.23,2.31.15.37.45.56.9.56.49,0,.83-.21,1.01-.63.18-.42.27-1.23.27-2.45v-3.09h-1.37v-3.96h7.94v14h-4.26l-.63-1.87c-.46.81-1.05,1.41-1.75,1.81-.7.4-1.53.6-2.49.6-1.14,0-2.21-.28-3.2-.83-.99-.55-1.75-1.24-2.27-2.05s-.84-1.67-.97-2.57c-.13-.9-.19-2.24-.19-4.04v-7.75c0-2.49.13-4.3.4-5.43.27-1.13,1.04-2.16,2.31-3.1,1.27-.94,2.92-1.41,4.94-1.41s3.64.41,4.95,1.22,2.16,1.79,2.56,2.91c.4,1.12.6,2.75.6,4.89v1.13Z"/>
          <path class="cls-3" d="m195.33,43.55v5.22h-4.03v20.87h-6.78v-20.87h-4.01v-5.22h14.82Z"/>
          <path class="cls-3" d="m212.47,43.55v26.09h-6.78v-10.96h-2.03v10.96h-6.78v-26.09h6.78v9.33h2.03v-9.33h6.78Z"/>
        </g>
        <g class="cls-5">
          <path class="cls-2" d="m238.22,59.73v4.4l-1.81,1.16,2.27,4.35h-6.03l-.78-1.45c-2.02,1.33-3.93,2-5.74,2s-3.35-.63-4.37-1.89c-1.02-1.26-1.53-2.77-1.53-4.54,0-1.42.3-2.53.9-3.34s1.5-1.46,2.71-1.97c-1.72-1.24-2.58-2.91-2.58-5.01,0-1.82.61-3.28,1.84-4.38s2.91-1.66,5.06-1.66c1.93,0,3.46.54,4.57,1.63,1.11,1.09,1.67,2.47,1.67,4.14,0,1.76-.68,3.33-2.03,4.69l2.3,4.15,3.55-2.28Zm-8.58,5.52l-2.1-3.52c-.81.73-1.21,1.52-1.21,2.37,0,.61.13,1.07.38,1.38.25.31.62.46,1.12.46.52,0,1.13-.23,1.82-.69Zm-1.46-10.08c.73-.96,1.1-1.88,1.1-2.75,0-.38-.11-.72-.32-1.04-.21-.31-.52-.47-.9-.47-.35,0-.62.12-.81.36-.18.24-.27.6-.27,1.08,0,1.01.4,1.95,1.21,2.81Z"/>
        </g>
        <g class="cls-5">
          <path class="cls-4" d="m261.44,43.55v26.09h-6.78v-10.96h-2.03v10.96h-6.78v-26.09h6.78v9.33h2.03v-9.33h6.78Z"/>
          <path class="cls-4" d="m264.16,43.55h11.31v5.22h-4.53v4.95h4.24v4.96h-4.24v5.74h4.98v5.22h-11.76v-26.09Z"/>
          <path class="cls-4" d="m289.6,43.55l3.88,26.09h-6.93l-.36-4.69h-2.43l-.41,4.69h-7.01l3.46-26.09h9.81Zm-3.6,16.77c-.34-2.96-.69-6.61-1.03-10.96-.69,5-1.12,8.65-1.3,10.96h2.34Z"/>
        </g>
        <g class="cls-5">
          <path class="cls-4" d="m301.41,43.55v20.87h4.12v5.22h-10.91v-26.09h6.78Z"/>
        </g>
        <g class="cls-5">
          <path class="cls-4" d="m318.48,43.55v5.22h-4.03v20.87h-6.78v-20.87h-4.01v-5.22h14.82Z"/>
          <path class="cls-4" d="m335.63,43.55v26.09h-6.78v-10.96h-2.03v10.96h-6.78v-26.09h6.78v9.33h2.03v-9.33h6.78Z"/>
        </g>
      </g>
    </g>
  </g>
</svg>