<?xml version="1.0" encoding="UTF-8"?>
<svg id="Layer_2" data-name="Layer 2" xmlns="http://www.w3.org/2000/svg" viewBox="0 0 337 80.55">
  <defs>
    <style>
      .cls-1 {
        fill: #fff;
      }

      .cls-1, .cls-2, .cls-3, .cls-4, .cls-5 {
        isolation: isolate;
      }

      .cls-1, .cls-2, .cls-3, .cls-5 {
        font-family: Impact, Impact;
        font-size: 33px;
      }

      .cls-2 {
        fill: #df2835;
      }

      .cls-3, .cls-5 {
        fill: #07a04a;
      }

      .cls-6 {
        fill: #ea362a;
      }

      .cls-5 {
        letter-spacing: -.07em;
      }
    </style>
  </defs>
  <g id="Layer_2-2" data-name="Layer 2">
    <g id="Layer_1-2" data-name="Layer 1-2">
      <g>
        <path class="cls-6" d="m0,44.51C21.43-41.04,65.08,24.33,27.93,17.34c-7.96,1.95-.18,14.34-1.52,20.44,4.15,2.71,13.31-4.41,19.21,1.66,11.68-13.95,34.4-1.02,25.45-1.8-9.93-5.54-28.23-2.84-19.64,10.08-10.95-11.21-17.86-12.18-29,.15-5.34,1.42,4.33-5.66,1.78-10.03-10.79-43.34,25.07-5.84,12.99-33.15C17.12-10.42-2.95,44.15,5.35,56.44c13.95,15.44,33.27,9.47,50.54,12.48,6.07,3.56,12.73,3.44,19.48,1.53v2.13c-8.42,2.92-16.13,1.54-23.64-3.32C33.74,72.52-.51,68.5,0,45.92v-1.41Z"/>
        <path class="cls-6" d="m16.41,53.06c5.27,4.13,12.24,6.79,17.86,9.32-4.6,2.51-17.8-4.51-17.86-9.32Z"/>
        <path class="cls-6" d="m75.37,62.95c-.05,4.34-13.71.72-13.37-3.5,3.68.45,8.29,4.93,13.37,3.5Z"/>
        <path class="cls-6" d="m46.55,13.23c3.14,3.74,5.38,9.2,7.06,13.23-3.73-2.16-4.55-9.27-7.06-13.23Z"/>
        <path class="cls-6" d="m38.85,63.35c-9.73-.57,9.75-4.9,4.34-.49-1.47,0-2.83.9-4.34.49Z"/>
        <path class="cls-6" d="m58.26,23.39c-.43,5.87-2.74-3.36-1.81-4.64,1.32.41,1.74,3.21,1.81,4.64Z"/>
        <path class="cls-6" d="m67.42,23.07c-.5-1.62.35-4.56,1.43-5.18,1.16,1.83-.73,3.6-1.43,5.18Z"/>
        <path class="cls-6" d="m69.31,26.6c.93-1.6,1.29-3.22,3.13-3.63-1.18.99-.52,3.35-3.13,3.63Z"/>
        <path class="cls-6" d="m63.17,17.85c.49,1.09.42,2.07-.6,3-.95-1.34.24-2.08.6-3Z"/>
      </g>
      <g class="cls-4">
        <text class="cls-2" transform="translate(80.49 69.64)"><tspan x="0" y="0">STRENGTH </tspan></text>
        <text class="cls-1" transform="translate(219.66 69.64)"><tspan x="0" y="0">&amp; </tspan></text>
        <text class="cls-3" transform="translate(244.49 69.64)"><tspan x="0" y="0">HEA</tspan></text>
        <text class="cls-5" transform="translate(293.28 69.64)"><tspan x="0" y="0">L</tspan></text>
        <text class="cls-3" transform="translate(303.47 69.64)"><tspan x="0" y="0">TH</tspan></text>
      </g>
    </g>
  </g>
</svg>