<?xml version="1.0" encoding="UTF-8"?>
<svg id="Layer_2" data-name="Layer 2" xmlns="http://www.w3.org/2000/svg" viewBox="0 0 358 90.83">
  <defs>
    <style>
      .cls-1 {
        fill: #0b132b;
        font-family: Impact, Impact;
        font-size: 42.46px;
      }

      .cls-2 {
        fill: #ffad05;
        opacity: .66;
      }
    </style>
  </defs>
  <g id="Layer_1-2" data-name="Layer 1">
    <g>
      <path class="cls-2" d="m96.45,13.1c0,6.65,0,13.3-.03,19.95,0,.92,0,1.71,2.13,1.48,23.88,0,47.76.02,71.63.02,26.48,0,52.97-.02,79.45-.03.87,0,1.74,0,2.61,0,2.96-.1,5.97.34,8.89-.24.85-.52.49-1.18.49-1.77.04-7.29.04-14.59.06-21.88.58-.69.89-1.42.94-2.19,1.98-4.66,9.75-8.48,18.29-8.09,1.03.05,2.07-.02,3.11-.03,1.21.22,2.42.44,3.64.66,0,0,0,0,0,0,.22.26.61.3,1.04.29.17.02.34.03.51.03,1.22.51,2.44,1.03,3.66,1.54,2.23,1.51,2.47,1.51,4.71.17,1.61-.96,3.51-1.67,5.71-2.07.53-.19,1.06-.37,1.58-.56,2.6-.03,5.2-.06,7.8-.09,1.67.13,3.17.55,4.68.96.7.21,1.39.42,2.09.63.87.31,1.74.63,2.61.94,2.79,1.8,4.89,3.83,6.01,6.23.45.95.79,1.88.77,2.88-.05,3.21,0,6.41-.06,9.62-.02,1.1.6,1.38,2.35.99,1.93-.43,3.89-.89,6.03-.75,1.66-.53,3.47-.19,5.21-.31,2.19-.03,3.71,1.02,5.73,1.27,1.04.41,2.09.83,3.13,1.24,2.06,1.42,4.08,2.84,5.46,4.58.99,1.25.25,2.63,1.29,3.82,0,8.85.02,17.71.01,26.56,0,.46-.11.92-.24,1.38-1.82,6.55-14.81,11.84-26.94,7.92-1.76-.57-2.03-.14-2.02.82.05,3.47.05,6.94.03,10.41-.05,7.36-13.56,13.63-25.51,10.47-2.47-.65-4.66-1.56-6.78-2.54-.38-.36-.98-.33-1.57-.33-.64.02-1.01.22-1.1.6-.98.34-2.02.64-2.63,1.26-2.21.32-4.24.89-6.19,1.58-2.39.32-4.81.38-7.25.28-3.79-.85-7.51-1.75-10.46-3.52-2.72-1.63-3.92-3.7-5.18-5.78-.02-.31-.03-.62-.05-.93.03-.34.12-.7-.42-.95-.01-7.92-.08-15.85.02-23.77.02-1.38-.63-1.73-2.92-1.73-53.2.04-106.4.04-159.59,0-2.14,0-2.81.33-2.79,1.64.1,7.25.01,14.5.05,21.75.02,4.39-1.76,8.29-8.09,11.01-.18.08-.22.27-.32.41-.73.14-1.53.22-2.19.43-5.96,1.96-11.87,1.93-17.69-.16-1.62-.58-3.12-1.3-4.6-2-.78-.37-1.57-.6-2.25-.08-2.72,2.13-6.78,2.84-10.72,3.68-1.73,0-3.45.01-5.18.02-.3-.09-.57-.23-.89-.28-9.89-1.34-15.12-5.91-15.26-11.67-.07-2.9-.01-5.8-.01-8.69,0-2.19.02-2.16-3.4-1.51-4.71.89-9.43,1.23-14.17,0C3.59,66.56.29,62.67.1,57.65c-.12-3.26-.06-6.52,0-9.78.01-.92.53-1.85.37-2.75-.76-4.33-.43-8.66-.13-12.98.03-.39-.02-.69-.29-1.01.26-2.78,3.22-4.75,5.82-6.82.74-.28,1.65-.42,2.07-.94,2.33-1.02,5.14-1.32,7.79-1.86,1.73-.01,3.47-.02,5.2-.03.51.02,1.03.03,1.54.05,1.51.35,3.15.57,4.51,1.07,1.99.73,2.33.32,2.31-.83-.05-3.82-.03-7.64-.03-11.46.09-1.21,1.04-2.28,1.56-3.42.86-.83,1.73-1.66,2.59-2.49.88-.61,1.77-1.22,2.65-1.83.6-.19,1.21-.37,1.8-.57,3.94-1.36,8-2.17,12.72-1.7,3.92.39,7.13,1.41,9.94,3,.88.5,1.8,1.21,3.05.58,1.34-.68,2.87-1.29,3.74-2.26.42-.02.82-.06,1.04-.31.82-.06,1.54-.23,2.09-.62,1.91-.21,3.81-.43,5.72-.64,4.22-.24,7.83.82,11.45,1.89,5.14,2.24,7.64,5.39,8.8,9.01.02.72.04,1.44.06,2.16Zm232.41,42.59c.06,1.34-.35,2.69.23,4.01,1.25,2.82,5.04,4.73,9.81,5,4.75.27,8.24-1.15,10.72-4.35.44-.79.57-1.6.56-2.43-.04-8.62.11-17.24-.54-25.86-.16-.4-.31-.8-.48-1.2-1.02-2.38-5.66-4.57-9.96-4.7-4.17-.12-8.41,1.71-9.72,4.24-.59,1.14-.83,2.32-.62,3.52,0,7.25,0,14.51,0,21.76ZM70.94,6.27c-3.41,1.35-3.94,3.37-3.64,5.58,0,22.79,0,45.58-.03,68.37,0,.91.44,1.73,1.09,2.52.46.55,1.17.95,2.02,1.28.89.79,2.15,1.26,3.67,1.51,1.91.52,3.9.46,5.83.14,5.29-.88,8.21-3.57,8.21-7.57-.01-10.6-.1-21.21-.4-31.81-.33-11.49-.18-22.99-.03-34.48.07-5.24-9.64-8.33-15.7-5.85-.34.11-.69.22-1.03.33Zm30.7,32.99c-.32-.37-.65-.37-.97,0-.59.07-1.26.28-1.76.18-2.77-.55-2.47.52-2.46,1.54.03,2.17.11,4.35-.03,6.52-.07,1.21.21,1.84,2.66,1.57,1.58-.17,3.27.08,4.91.08,34.28,0,68.55,0,102.83,0,17.36,0,34.71-.02,52.07.03,2.16,0,2.89-.35,2.77-1.65-.2-2.16-.2-4.32-.33-6.48-.07-1.24-.46-1.59-2.32-1.55-.87.02-1.74,0-2.6,0-4.42.11-8.81-.26-13.21-.27-45.87-.03-91.75-.02-137.62-.02-.95,0-1.91.03-2.86.04h-1.08Zm189.16,41.31c.82-.47.49-1.07.49-1.62.02-21.35.01-42.7.02-64.04,0-.62.09-1.25-.55-1.8.39-2.53-.19-4.77-3.81-6.56-4.08-2.02-12.21-1.98-15.06,1.34-1.53,1.79-1.9,3.67-1.86,5.54.12,7.14-.24,14.27.28,21.41.41,5.62.11,11.26-.2,16.9-.49,9.16-.21,18.33-.1,27.5.03,2.58,2.2,4.65,5.98,5.91,5.66,1.89,13.42.15,14.8-4.59ZM50.1,5.32c-6.21-1.22-12.45,1.7-12.49,5.93-.06,7.45,0,14.91.02,22.36,0,8.08,0,16.17,0,24.25-.01,7.33-.03,14.66-.05,21.99,0,.57.03,1.14.56,1.64-.01.26.08.48.49.62,2.12,3.93,12.27,5.4,17.22,1.27,1.86-1,2.55-2.33,2.55-3.75.03-22.61.03-45.22,0-67.83,0-3.26-2.97-5.48-8.3-6.49Zm270.41,23.63c-.01-5.8-.03-11.61-.04-17.41-.21-5.05-9.77-8.1-15.61-5.63-3.12.75-5.19,2.67-5.19,4.82,0,22.92.02,45.84-.04,68.76,0,1.48.62,2.73,2.14,3.86.73.47.99,1.38,2.62.99.13,0,.25,0,.37-.03-.07.71.7,1.01,1.67,1.2,8.98,1.63,14.07-2.17,14.08-5.81.01-15.99,0-31.98-.02-47.97,0-.93.01-1.87.02-2.8ZM7.9,45.79c0,4.14-.08,8.29.02,12.43.11,4.38,7.97,7.64,14.63,6.13,4.03-.91,6.69-3.31,6.65-6.25-.05-3.82-.36-7.64-.42-11.46-.08-4.4-.05-8.8,0-13.2,0-.94-.19-1.85-.58-2.75-.82-1.91-4.47-3.99-7.32-4.21-5.67-.44-9.08.46-11.28,2.89-1.32,1.46-1.65,3.04-1.68,4.63-.07,3.93-.02,7.87-.02,11.81Z"/>
      <text class="cls-1" transform="translate(9.36 60.5)"><tspan x="0" y="0">Strength And Health</tspan></text>
    </g>
  </g>
</svg>