<?xml version="1.0" encoding="UTF-8"?>
<svg id="Layer_2" data-name="Layer 2" xmlns="http://www.w3.org/2000/svg" viewBox="0 0 355.01 87.48">
  <defs>
    <style>
      .cls-1 {
        letter-spacing: -.07em;
      }

      .cls-2 {
        fill: #ea362a;
      }

      .cls-3 {
        fill: #0e162c;
        font-family: Impact, Impact;
        font-size: 33px;
      }
    </style>
  </defs>
  <g id="Layer_1-2" data-name="Layer 1">
    <g>
      <path class="cls-2" d="m0,50.44C24.28-46.5,73.74,27.57,31.64,19.65c-9.02,2.21-.2,16.25-1.72,23.16,4.71,3.07,15.09-4.99,21.77,1.88,13.23-15.81,38.99-1.16,28.84-2.04-11.25-6.28-31.99-3.22-22.25,11.43-12.41-12.7-20.24-13.8-32.87.17-6.05,1.61,4.91-6.41,2.02-11.36-12.23-49.12,28.41-6.61,14.72-37.56C19.38-11.8-3.35,50.03,6.05,63.95c15.81,17.5,37.7,10.73,57.27,14.14,6.88,4.03,14.42,3.9,22.08,1.74,0,.81,0,1.61,0,2.42-9.55,3.31-18.28,1.74-26.79-3.76C38.23,82.18-.59,77.62,0,52.04v-1.6Z"/>
      <path class="cls-2" d="m18.58,60.13c5.97,4.67,13.87,7.7,20.24,10.56-5.21,2.85-20.17-5.11-20.24-10.56Z"/>
      <path class="cls-2" d="m85.4,71.33c-.06,4.92-15.54.82-15.15-3.97,4.17.51,9.4,5.58,15.15,3.97Z"/>
      <path class="cls-2" d="m52.74,15c3.56,4.23,6.1,10.43,8,15-4.22-2.45-5.16-10.5-8-15Z"/>
      <path class="cls-2" d="m44.02,71.79c-11.02-.64,11.05-5.55,4.92-.56-1.67,0-3.2,1.02-4.92.56Z"/>
      <path class="cls-2" d="m66.01,26.5c-.49,6.65-3.1-3.81-2.06-5.26,1.5.46,1.98,3.64,2.06,5.26Z"/>
      <path class="cls-2" d="m76.4,26.15c-.57-1.84.4-5.17,1.62-5.87,1.31,2.08-.82,4.08-1.62,5.87Z"/>
      <path class="cls-2" d="m78.53,30.15c1.05-1.81,1.46-3.65,3.55-4.11-1.34,1.12-.59,3.79-3.55,4.11Z"/>
      <path class="cls-2" d="m71.58,20.22c.55,1.24.48,2.35-.68,3.4-1.08-1.51.27-2.36.68-3.4Z"/>
    </g>
    <text class="cls-3" transform="translate(92.37 72.69)"><tspan x="0" y="0">STRENGTH &amp; HEA</tspan><tspan class="cls-1" x="212.79" y="0">L</tspan><tspan x="222.98" y="0">TH</tspan></text>
  </g>
</svg>